# Blender 4.0.2
# www.blender.org
mtllib obelisk.mtl
o Cube
v 1.350000 0.500000 -1.350000
v 1.350000 -1.000000 -1.350000
v 1.350000 0.500000 1.350000
v 1.350000 -1.000000 1.350000
v -1.350000 0.500000 -1.350000
v -1.350000 -1.000000 -1.350000
v -1.350000 0.500000 1.350000
v -1.350000 -1.000000 1.350000
v 1.000000 1.000000 1.000000
v -1.000000 1.000000 1.000000
v 1.000000 1.000000 -1.000000
v -1.000000 1.000000 -1.000000
v 1.000000 7.000000 1.000000
v -1.000000 6.000000 1.000000
v 1.000000 6.000000 -1.000000
v -1.000000 5.000000 -1.000000
v 1.700000 0.500000 1.700000
v -1.700000 0.500000 1.700000
v 1.700000 0.500000 -1.700000
v -1.700000 0.500000 -1.700000
v 1.700000 1.000000 1.700000
v -1.700000 1.000000 1.700000
v 1.700000 1.000000 -1.700000
v -1.700000 1.000000 -1.700000
vn -0.0000 -1.0000 -0.0000
vn -0.0000 -0.0000 1.0000
vn -1.0000 -0.0000 -0.0000
vn 1.0000 -0.0000 -0.0000
vn -0.0000 -0.0000 -1.0000
vn -0.0000 1.0000 -0.0000
vn -0.4082 0.8165 -0.4082
vt 0.386719 0.980469
vt 0.386719 0.832031
vt 0.406250 0.812500
vt 0.406250 1.000000
vt 0.531250 0.367188
vt 0.531250 0.453125
vt 0.382812 0.453125
vt 0.382812 0.367188
vt 0.234375 0.453125
vt 0.234375 0.367188
vt 0.828125 0.367187
vt 0.679688 0.367188
vt 0.679688 0.218750
vt 0.828125 0.218750
vt 0.679688 0.453125
vt 0.828125 0.453125
vt 0.562500 0.468750
vt 0.671875 0.468750
vt 0.671875 0.687500
vt 0.562500 0.742188
vt 0.238281 0.832031
vt 0.238281 0.980469
vt 0.218750 1.000000
vt 0.218750 0.812500
vt 0.039062 0.851562
vt 0.039062 0.960938
vt 0.000000 1.000000
vt 0.000000 0.812500
vt 0.148438 0.960938
vt 0.187500 1.000000
vt 0.726562 0.796875
vt 0.617188 0.851562
vt 0.453125 0.468750
vt 0.453125 0.796875
vt 0.234375 0.468750
vt 0.343750 0.468750
vt 0.343750 0.742188
vt 0.234375 0.687500
vt 0.187500 0.812500
vt 0.218750 0.437500
vt 0.218750 0.625000
vt 0.187500 0.625000
vt 0.187500 0.437500
vt 0.218750 0.250000
vt 0.187500 0.250000
vt 0.148438 0.851562
s 0
usemtl Material
f 7/1/1 3/2/1 17/3/1 18/4/1
f 4/5/2 3/6/2 7/7/2 8/8/2
f 8/8/3 7/7/3 5/9/3 6/10/3
f 6/11/1 2/12/1 4/13/1 8/14/1
f 2/12/4 1/15/4 3/6/4 4/5/4
f 6/11/5 5/16/5 1/15/5 2/12/5
f 11/17/5 12/18/5 16/19/5 15/20/5
f 1/21/1 5/22/1 20/23/1 19/24/1
f 9/25/6 10/26/6 22/27/6 21/28/6
f 10/26/6 12/29/6 24/30/6 22/27/6
f 15/20/7 16/19/7 14/31/7 13/32/7
f 9/33/4 11/17/4 15/20/4 13/34/4
f 12/35/3 10/36/3 14/37/3 16/38/3
f 10/36/2 9/33/2 13/34/2 14/37/2
f 19/24/5 20/23/5 24/30/5 23/39/5
f 18/40/2 17/41/2 21/42/2 22/43/2
f 20/44/3 18/40/3 22/43/3 24/45/3
f 17/41/4 19/24/4 23/39/4 21/42/4
f 12/29/6 11/46/6 23/39/6 24/30/6
f 11/46/6 9/25/6 21/28/6 23/39/6
f 5/22/1 7/1/1 18/4/1 20/23/1
f 3/2/1 1/21/1 19/24/1 17/3/1
