<?xml version="1.0" encoding="utf-8"?>
<!-- Generator: Adobe Illustrator 26.1.0, SVG Export Plug-In . SVG Version: 6.00 Build 0)  -->
<svg version="1.2" baseProfile="tiny" xmlns="http://www.w3.org/2000/svg" xmlns:xlink="http://www.w3.org/1999/xlink" x="0px"
	 y="0px" viewBox="0 0 50 50" overflow="visible" xml:space="preserve">
<g id="Circle">
	<circle fill="#FFFFFF" stroke="#00BFFF" stroke-miterlimit="10" cx="25.5" cy="21.5" r="20"/>
</g>
<g id="Book">
	<polygon fill="#FFFFFF" stroke="#00BFFF" stroke-miterlimit="10" points="8.5,14 17.5,28.5 41.5,28.5 41.5,47.5 16.5,47.5 8.5,32 	
		"/>
	<rect x="17.5" y="26.5" fill="#FFFFFF" stroke="#00BFFF" stroke-miterlimit="10" width="22" height="17"/>
	<polygon fill="#FFFFFF" stroke="#00BFFF" stroke-miterlimit="10" points="10.5,30 17.5,44.5 39.5,44.5 39.5,45.5 17.5,45.5 
		10.5,31 	"/>
	<polygon fill="#FFFFFF" stroke="#00BFFF" stroke-miterlimit="10" points="17.5,26.5 17.5,43.5 10.5,29 10.5,13 11.5,12 	"/>
	<line fill="none" stroke="#00BFFF" stroke-miterlimit="10" x1="11.5" y1="12" x2="11.5" y2="32"/>
</g>
<g id="Obelisk">
	<polygon fill="#FFFFFF" stroke="#00BFFF" stroke-miterlimit="10" points="37.5,28.5 37.5,35.5 30.5,39.5 20.5,37.5 20.5,30.5 
		30.5,32.5 	"/>
	<polygon fill="#FFFFFF" stroke="#00BFFF" stroke-miterlimit="10" points="30.5,25.5 16.5,29.5 30.5,32.5 41.5,27.5 	"/>
	<polygon fill="#FFFFFF" stroke="#00BFFF" stroke-miterlimit="10" points="28.5,3.5 22.5,7.5 22.5,28.5 30.5,30.5 35.5,28.5 
		35.5,7.5 	"/>
	<line fill="none" stroke="#00BFFF" stroke-miterlimit="10" x1="30.5" y1="32" x2="30.5" y2="39"/>
	<line fill="#FFFFFF" stroke="#00BFFF" stroke-miterlimit="10" x1="30.5" y1="11" x2="30.5" y2="30"/>
	<line fill="none" stroke="#00BFFF" stroke-miterlimit="10" x1="22.5" y1="7.5" x2="30.5" y2="11.5"/>
	<line fill="none" stroke="#00BFFF" stroke-miterlimit="10" x1="35.5" y1="7.5" x2="30.5" y2="11.5"/>
</g>
</svg>
