<?xml version="1.0" encoding="utf-8"?>
<!-- Generator: Adobe Illustrator 26.1.0, SVG Export Plug-In . SVG Version: 6.00 Build 0)  -->
<svg version="1.1" id="图层_1" xmlns="http://www.w3.org/2000/svg" xmlns:xlink="http://www.w3.org/1999/xlink" x="0px" y="0px"
	 viewBox="0 0 30 30" style="enable-background:new 0 0 30 30;" xml:space="preserve">
<style type="text/css">
	.st0{fill:#FFFFFF;stroke:#000000;stroke-width:2;stroke-miterlimit:10;}
	.st1{fill:#3F3F3F;}
	.st2{fill:#7F7F7F;}
	.st3{fill:#BFE1E6;}
</style>
<polygon class="st0" points="9,2 21,4 22,5 24,5 24,7 25,8 28,18 27,19 23,11 21,9 12,19 12,20 5,28 3,28 3,26 10,18 11,18 20,8 
	18,6 "/>
<polygon class="st1" points="3,26 10,18 12,18 12,20 5,28 3,28 "/>
<polygon class="st2" points="20,8 11,18 12,19 21,9 "/>
<polygon class="st3" points="23,11 23,11 27,19 28,18 25,9 23,6 20,4 9,2 18,6 21,8 "/>
<polygon class="st1" points="19,7 22,10 24,8 24,5 21,5 "/>
</svg>
